<?xml version="1.0" standalone="no"?><!DOCTYPE svg PUBLIC "-//W3C//DTD SVG 1.1//EN" "http://www.w3.org/Graphics/SVG/1.1/DTD/svg11.dtd"><svg t="1677776175895" class="icon" viewBox="0 0 1024 1024" version="1.1" xmlns="http://www.w3.org/2000/svg" p-id="10645" xmlns:xlink="http://www.w3.org/1999/xlink" width="600" height="600"><path d="M512 1024C229.233778 1024 0 794.766222 0 512S229.233778 0 512 0s512 229.233778 512 512-229.233778 512-512 512z m0-824.888889c-84.992 0-95.601778 0.398222-128.995556 1.877333-33.308444 1.564444-56.007111 6.826667-75.946666 14.535112a153.230222 153.230222 0 0 0-55.438222 36.124444 152.661333 152.661333 0 0 0-36.096 55.409778c-7.736889 19.939556-12.999111 42.638222-14.535112 75.946666C199.424 416.426667 199.111111 427.008 199.111111 512c0 84.992 0.398222 95.601778 1.877333 128.995556 1.564444 33.28 6.826667 56.007111 14.535112 75.946666 7.879111 20.878222 20.195556 39.822222 36.124444 55.438222 15.616 15.928889 34.531556 28.245333 55.409778 36.067556 19.968 7.736889 42.666667 13.027556 75.946666 14.563556C416.426667 824.576 427.008 824.888889 512 824.888889c84.992 0 95.601778-0.398222 128.995556-1.877333 33.28-1.564444 56.007111-6.826667 75.946666-14.563556a153.770667 153.770667 0 0 0 55.438222-36.067556c15.928889-15.644444 28.245333-34.56 36.067556-55.438222 7.736889-19.939556 13.027556-42.666667 14.563556-75.946666C824.576 607.573333 824.888889 596.992 824.888889 512c0-84.992-0.398222-95.601778-1.877333-128.995556-1.564444-33.28-6.826667-56.035556-14.563556-75.946666a153.6 153.6 0 0 0-36.067556-55.438222 152.462222 152.462222 0 0 0-55.438222-36.096c-19.939556-7.736889-42.666667-12.999111-75.946666-14.535112C607.573333 199.424 596.992 199.111111 512 199.111111z m0 56.32c83.512889 0 93.468444 0.426667 126.464 1.848889 30.492444 1.422222 47.047111 6.485333 58.055111 10.808889 14.648889 5.688889 25.031111 12.458667 36.039111 23.381333 10.922667 10.951111 17.692444 21.333333 23.352889 36.010667 4.266667 11.008 9.386667 27.562667 10.780445 58.055111 1.479111 32.995556 1.820444 42.922667 1.820444 126.464s-0.398222 93.468444-1.934222 126.464c-1.592889 30.492444-6.656 47.047111-10.979556 58.055111-5.091556 13.596444-13.084444 25.884444-23.438222 36.039111a97.621333 97.621333 0 0 1-35.982222 23.352889c-10.951111 4.266667-27.761778 9.386667-58.254222 10.780445-33.223111 1.479111-43.008 1.820444-126.691556 1.820444-83.740444 0-93.525333-0.398222-126.72-1.934222-30.520889-1.592889-47.331556-6.656-58.311111-10.979556a96.881778 96.881778 0 0 1-35.925333-23.438222 95.004444 95.004444 0 0 1-23.466667-35.982222c-4.323556-10.951111-9.386667-27.761778-10.951111-58.254222-1.194667-32.853333-1.592889-43.008-1.592889-126.293334 0-83.342222 0.398222-93.525333 1.592889-126.776889 1.592889-30.492444 6.627556-47.274667 10.951111-58.225777 5.461333-14.876444 12.487111-25.031111 23.466667-36.010667 10.922667-10.951111 21.105778-17.976889 35.953777-23.438222 10.951111-4.323556 27.392-9.386667 57.912889-10.979556 33.223111-1.137778 43.008-1.536 126.691556-1.536L512 255.431111z m0 95.886222a160.682667 160.682667 0 1 0 0 321.365334 160.682667 160.682667 0 0 0 0-321.365334z m0 264.988445A104.277333 104.277333 0 0 1 407.694222 512 104.277333 104.277333 0 0 1 512 407.694222 104.277333 104.277333 0 0 1 616.305778 512 104.277333 104.277333 0 0 1 512 616.305778z m204.572444-271.303111a37.546667 37.546667 0 0 0-75.093333 0 37.546667 37.546667 0 0 0 75.093333 0z" fill="#FF517C" p-id="10646"></path></svg>