<?xml version="1.0" standalone="no"?><!DOCTYPE svg PUBLIC "-//W3C//DTD SVG 1.1//EN" "http://www.w3.org/Graphics/SVG/1.1/DTD/svg11.dtd"><svg t="1677776867709" class="icon" viewBox="0 0 1024 1024" version="1.1" xmlns="http://www.w3.org/2000/svg" p-id="31786" xmlns:xlink="http://www.w3.org/1999/xlink" width="600" height="600"><path d="M188.235294 908.047059c-28.611765-24.094118-54.211765-49.694118-78.305882-78.305883l78.305882 78.305883z" fill="#F77123" p-id="31787"></path><path d="M222.870588 935.152941c-12.047059-7.529412-22.588235-16.564706-34.635294-25.6l-78.305882-78.305882c-9.035294-10.541176-16.564706-21.082353-22.588236-33.129412l135.529412 137.035294z" fill="#F76E1E" p-id="31788"></path><path d="M248.470588 950.211765c-9.035294-4.517647-15.058824-10.541176-22.588235-15.058824l-135.529412-138.541176c-6.023529-7.529412-10.541176-16.564706-15.058823-25.6l173.17647 179.2z" fill="#F66B18" p-id="31789"></path><path d="M268.047059 962.258824c-7.529412-3.011765-13.552941-7.529412-21.082353-12.047059l-177.694118-180.705883c-4.517647-7.529412-7.529412-13.552941-12.047059-21.082353l210.82353 213.835295z" fill="#F66713" p-id="31790"></path><path d="M286.117647 971.294118l-18.070588-9.035294-210.82353-213.835295c-3.011765-6.023529-6.023529-12.047059-7.529411-16.564705L286.117647 971.294118zM335.811765 992.376471c-16.564706-6.023529-33.129412-13.552941-48.188236-21.082353l-237.929411-240.941177c-7.529412-16.564706-15.058824-31.623529-19.576471-49.694117l305.694118 311.717647z" fill="#F6640E" p-id="31791"></path><path d="M376.470588 1005.929412c-13.552941-3.011765-27.105882-7.529412-40.658823-13.552941L28.611765 680.658824c-4.517647-13.552941-9.035294-27.105882-12.047059-40.658824L376.470588 1005.929412z" fill="#F46113" p-id="31792"></path><path d="M414.117647 1014.964706c-12.047059-3.011765-24.094118-4.517647-36.141176-9.035294l-361.411765-365.929412C13.552941 627.952941 10.541176 615.905882 9.035294 602.352941l405.082353 412.611765z" fill="#F25D19" p-id="31793"></path><path d="M447.247059 1019.482353c-12.047059-1.505882-22.588235-3.011765-33.129412-6.023529L7.529412 602.352941c-1.505882-10.541176-3.011765-22.588235-4.517647-33.129412l444.235294 450.258824z" fill="#F05A1E" p-id="31794"></path><path d="M478.870588 1022.494118c-10.541176 0-21.082353-1.505882-31.623529-3.011765L3.011765 569.223529c-1.505882-10.541176-1.505882-21.082353-3.011765-31.623529l478.870588 484.894118z" fill="#EE5723" p-id="31795"></path><path d="M507.482353 1024h-28.611765v-1.505882L0 537.6v-28.611765z" fill="#EC5328" p-id="31796"></path><path d="M536.094118 1024h-28.611765L0 508.988235v-28.611764h1.505882L536.094118 1024z" fill="#EA502E" p-id="31797"></path><path d="M561.694118 1020.988235c-9.035294 1.505882-18.070588 1.505882-27.105883 1.505883L0 480.376471c0-9.035294 1.505882-18.070588 3.011765-27.105883l558.682353 567.717647z" fill="#E84D33" p-id="31798"></path><path d="M587.294118 1017.976471c-9.035294 1.505882-16.564706 1.505882-25.6 3.011764L3.011765 454.776471c0-9.035294 1.505882-16.564706 3.011764-25.6L587.294118 1017.976471z" fill="#E54938" p-id="31799"></path><path d="M611.388235 1014.964706c-7.529412 1.505882-16.564706 3.011765-24.094117 4.517647L6.023529 429.176471c1.505882-7.529412 3.011765-16.564706 4.517647-24.094118l600.847059 609.882353z" fill="#E3463D" p-id="31800"></path><path d="M633.976471 1008.941176l-22.588236 4.517648L10.541176 405.082353c1.505882-7.529412 3.011765-15.058824 6.02353-22.588235l617.411765 626.447058z" fill="#E14343" p-id="31801"></path><path d="M656.564706 1002.917647c-7.529412 3.011765-15.058824 4.517647-22.588235 6.023529l-617.411765-627.952941c1.505882-7.529412 4.517647-15.058824 6.023529-22.588235l633.976471 644.517647z" fill="#DF3F48" p-id="31802"></path><path d="M679.152941 996.894118c-7.529412 3.011765-15.058824 4.517647-21.082353 7.529411L22.588235 359.905882c1.505882-7.529412 4.517647-15.058824 7.529412-21.082353l649.035294 658.070589z" fill="#DD3C4D" p-id="31803"></path><path d="M698.729412 989.364706c-6.023529 3.011765-13.552941 4.517647-21.082353 7.529412L30.117647 338.823529c3.011765-7.529412 6.023529-13.552941 7.529412-21.082353l661.082353 671.62353z" fill="#DB3953" p-id="31804"></path><path d="M719.811765 980.329412c-6.023529 3.011765-13.552941 6.023529-19.576471 9.035294l-662.588235-671.62353c3.011765-6.023529 6.023529-13.552941 9.035294-19.57647l673.129412 682.164706z" fill="#D93558" p-id="31805"></path><path d="M737.882353 971.294118c-6.023529 3.011765-13.552941 6.023529-19.576471 9.035294L46.682353 298.164706c3.011765-6.023529 6.023529-13.552941 9.035294-19.576471l682.164706 692.705883z" fill="#D7325D" p-id="31806"></path><path d="M757.458824 960.752941l-18.070589 9.035294-682.164706-692.705882c3.011765-6.023529 6.023529-12.047059 10.541177-18.070588l689.694118 701.741176z" fill="#D52E62" p-id="31807"></path><path d="M775.529412 951.717647c-6.023529 3.011765-12.047059 7.529412-18.070588 10.541177L66.258824 260.517647c3.011765-6.023529 7.529412-12.047059 10.541176-18.070588l698.729412 709.270588z" fill="#D32B68" p-id="31808"></path><path d="M793.6 939.670588c-6.023529 3.011765-12.047059 7.529412-18.070588 10.541177l-698.729412-707.764706c3.011765-6.023529 7.529412-12.047059 12.047059-18.070588l704.752941 715.294117z" fill="#D1286D" p-id="31809"></path><path d="M810.164706 929.129412c-6.023529 4.517647-10.541176 7.529412-16.564706 12.047059L87.341176 224.376471c3.011765-6.023529 7.529412-10.541176 12.047059-16.564706l710.776471 721.317647z" fill="#CF2472" p-id="31810"></path><path d="M826.729412 915.576471c-6.023529 4.517647-10.541176 7.529412-16.564706 12.047058L99.388235 207.811765c4.517647-6.023529 7.529412-10.541176 12.047059-16.564706l715.294118 724.329412z" fill="#CD2178" p-id="31811"></path><path d="M841.788235 903.529412c-4.517647 4.517647-10.541176 9.035294-15.058823 12.047059l-713.788236-722.82353c4.517647-6.023529 9.035294-10.541176 13.552942-15.058823L841.788235 903.529412z" fill="#CB1E7D" p-id="31812"></path><path d="M856.847059 889.976471c-4.517647 4.517647-10.541176 9.035294-15.058824 13.552941L124.988235 176.188235c4.517647-4.517647 9.035294-10.541176 13.552941-15.058823l718.305883 728.847059z" fill="#C81A82" p-id="31813"></path><path d="M871.905882 876.423529c-4.517647 4.517647-9.035294 9.035294-15.058823 13.552942L138.541176 161.129412c4.517647-4.517647 9.035294-9.035294 13.552942-15.058824l719.811764 730.352941z" fill="#C61787" p-id="31814"></path><path d="M885.458824 861.364706c-4.517647 4.517647-9.035294 10.541176-13.552942 15.058823L152.094118 147.576471c4.517647-4.517647 9.035294-9.035294 15.058823-13.552942l718.305883 727.341177z" fill="#C4148D" p-id="31815"></path><path d="M899.011765 846.305882c-4.517647 4.517647-9.035294 10.541176-13.552941 15.058824L167.152941 132.517647c4.517647-4.517647 10.541176-9.035294 15.058824-13.552941l716.8 727.341176z" fill="#C21092" p-id="31816"></path><path d="M912.564706 831.247059c-4.517647 4.517647-9.035294 10.541176-13.552941 15.058823L182.211765 120.470588c4.517647-4.517647 10.541176-9.035294 15.058823-12.047059l715.294118 722.82353z" fill="#C00D97" p-id="31817"></path><path d="M924.611765 814.682353c-4.517647 6.023529-7.529412 10.541176-12.047059 16.564706L198.776471 106.917647c6.023529-4.517647 10.541176-7.529412 16.564705-12.047059l709.270589 719.811765z" fill="#BE0A9C" p-id="31818"></path><path d="M936.658824 798.117647c-3.011765 6.023529-7.529412 12.047059-12.047059 16.564706L215.341176 94.870588c4.517647-4.517647 10.541176-7.529412 16.564706-12.047059L936.658824 798.117647z" fill="#BC06A2" p-id="31819"></path><path d="M947.2 781.552941c-3.011765 6.023529-7.529412 12.047059-12.047059 18.070588L231.905882 82.823529c6.023529-3.011765 12.047059-7.529412 18.070589-10.541176l697.223529 709.270588z" fill="#BA03A7" p-id="31820"></path><path d="M966.776471 748.423529c-6.023529 12.047059-12.047059 22.588235-18.070589 33.129412L248.470588 72.282353c12.047059-6.023529 22.588235-12.047059 34.635294-18.070588l683.670589 694.211764z" fill="#BA03A7" p-id="31821"></path><path d="M983.341176 712.282353c-4.517647 12.047059-10.541176 24.094118-16.564705 36.141176L283.105882 54.211765c12.047059-6.023529 24.094118-12.047059 36.141177-16.564706l664.094117 674.635294z" fill="#B503A8" p-id="31822"></path><path d="M998.4 674.635294c-4.517647 13.552941-9.035294 25.6-15.058824 37.647059L319.247059 37.647059c12.047059-4.517647 25.6-9.035294 37.647059-13.552941l394.541176 400.564706 246.964706 249.97647z" fill="#AF03A9" p-id="31823"></path><path d="M1008.941176 633.976471c-3.011765 13.552941-7.529412 27.105882-12.047058 40.658823L751.435294 424.658824 356.894118 24.094118c13.552941-4.517647 27.105882-7.529412 40.658823-12.047059L1008.941176 633.976471z" fill="#AA03AB" p-id="31824"></path><path d="M1017.976471 590.305882c-3.011765 15.058824-4.517647 30.117647-9.035295 43.670589L397.552941 12.047059c15.058824-3.011765 28.611765-6.023529 43.670588-7.529412l576.752942 585.788235z" fill="#A502AC" p-id="31825"></path><path d="M1024 543.623529l-3.011765 22.588236v4.517647l-3.011764 19.57647L441.223529 4.517647c15.058824-1.505882 31.623529-3.011765 48.188236-4.517647L1024 543.623529z" fill="#9F02AD" p-id="31826"></path><path d="M1024 490.917647v52.705882l-1.505882-1.505882L489.411765 0h-1.505883 52.705883L1024 489.411765v1.505882z" fill="#9A02AE" p-id="31827"></path><path d="M1024 489.411765L540.611765 0c19.576471 1.505882 39.152941 3.011765 58.729411 7.529412l418.635295 424.658823c3.011765 19.576471 4.517647 37.647059 6.023529 57.22353zM1024 490.917647z" fill="#9502AF" p-id="31828"></path><path d="M1017.976471 432.188235L599.341176 7.529412c22.588235 4.517647 46.682353 9.035294 67.764706 16.564706l334.305883 338.823529c7.529412 22.588235 12.047059 45.176471 16.564706 69.270588z" fill="#8F02B1" p-id="31829"></path><path d="M1001.411765 362.917647L668.611765 24.094118c31.623529 10.541176 61.741176 22.588235 88.847059 37.647058l207.811764 210.82353c15.058824 28.611765 27.105882 58.729412 36.141177 90.352941z" fill="#8A02B2" p-id="31830"></path><path d="M965.270588 272.564706l-207.811764-210.82353c87.341176 49.694118 161.129412 121.976471 207.811764 210.82353z" fill="#8502B3" p-id="31831"></path><path d="M743.905882 415.623529c-1.505882-37.647059-10.541176-70.776471-37.647058-97.882353-27.105882-27.105882-60.235294-36.141176-97.882353-37.647058-39.152941-1.505882-155.105882-1.505882-192.752942 0s-69.270588 10.541176-97.882353 37.647058c-27.105882 27.105882-36.141176 60.235294-37.647058 97.882353-1.505882 39.152941-1.505882 155.105882 0 192.752942s10.541176 69.270588 37.647058 97.882353c28.611765 27.105882 60.235294 36.141176 97.882353 37.647058 39.152941 1.505882 155.105882 1.505882 192.752942 0s70.776471-10.541176 97.882353-37.647058c27.105882-28.611765 36.141176-60.235294 37.647058-97.882353 3.011765-39.152941 3.011765-153.6 0-192.752942z m-49.694117 233.411765c-7.529412 21.082353-24.094118 36.141176-43.670589 45.176471-31.623529 12.047059-103.905882 9.035294-137.035294 9.035294-34.635294 0-106.917647 3.011765-137.035294-9.035294-21.082353-9.035294-36.141176-24.094118-45.17647-45.176471-12.047059-30.117647-9.035294-103.905882-9.035294-137.035294 0-33.129412-3.011765-106.917647 9.035294-137.035294 9.035294-19.576471 24.094118-36.141176 45.17647-43.670588 30.117647-12.047059 103.905882-9.035294 137.035294-9.035294 33.129412 0 106.917647-3.011765 137.035294 9.035294 19.576471 7.529412 36.141176 24.094118 43.670589 43.670588 12.047059 31.623529 9.035294 103.905882 9.035294 137.035294 0 34.635294 3.011765 106.917647-9.035294 137.035294z" fill="#FFFFFF" p-id="31832"></path><path d="M512 391.529412c-66.258824 0-120.470588 54.211765-120.470588 120.470588s52.705882 120.470588 120.470588 120.470588c66.258824 0 120.470588-52.705882 120.470588-120.470588 0-66.258824-54.211765-120.470588-120.470588-120.470588z m0 198.77647c-42.164706 0-78.305882-34.635294-78.305882-78.305882 0-42.164706 34.635294-76.8 78.305882-76.8 42.164706 0 76.8 34.635294 76.8 76.8 1.505882 43.670588-33.129412 78.305882-76.8 78.305882zM636.988235 358.4c-15.058824 0-28.611765 12.047059-28.611764 28.611765 0 15.058824 12.047059 28.611765 28.611764 28.611764 15.058824 0 28.611765-12.047059 28.611765-28.611764 0-15.058824-13.552941-28.611765-28.611765-28.611765z" fill="#FFFFFF" p-id="31833"></path></svg>